#!OML:ASF H:\Male1\Project 1\Capture day 1\Session 1\Male1.ASF
:FULLY-SPECIFIED
:DEGREES
454
root -25.2233 14.7504 -0.928301 909.729 -92.4858 162.795
lowerback 15.7471 0.670804 1.01009
upperback 8.11714 0.567707 0.584817
thorax -0.216753 0.104402 -0.0454566
lowerneck -7.62894 -0.55411 2.0949
upperneck 3.81341 -0.798094 -2.77797
head 2.52426 -0.458852 -1.29545
rclavicle -5.2181e-015 -3.97569e-016
rhumerus -49.2451 14.8544 -87.1645
rradius 89.3193
rwrist -33.6584
rhand -35.6603 16.6127
rfingers 7.12502
rthumb -8.78203 -13.1846
lclavicle -5.2181e-015 -3.97569e-016
lhumerus -51.9626 1.41676 84.6324
lradius 70.719
lwrist 18.5266
lhand -32.7988 1.79845
lfingers 7.12502
lthumb -6.02001 31.6929
rfemur -19.1635 6.16298 23.4822
rtibia 43.477
rfoot -14.3128 -19.1941
rtoes -23.8414
lfemur -23.2659 -12.9268 -16.075
ltibia 42.6939
lfoot -16.0911 2.37842
ltoes -19.5141
455
root -25.4131 14.7733 -0.882874 933.887 -91.4272 139.154
lowerback 15.4819 0.694786 1.05044
upperback 8.01953 0.606014 0.526292
thorax -0.179685 0.128032 -0.133963
lowerneck -7.75126 -0.782965 1.87015
upperneck 3.69703 -1.1084 -2.3501
head 2.49968 -0.603007 -1.13043
rclavicle -1.05107e-014 -2.18663e-015
rhumerus -48.8808 15.3237 -87.6577
rradius 89.2288
rwrist -33.761
rhand -35.7575 16.2888
rfingers 7.12502
rthumb -8.87582 -13.5045
lclavicle -1.05107e-014 -2.18663e-015
lhumerus -52.4989 1.91371 83.7367
lradius 66.9281
lwrist 18.8099
lhand -31.9154 4.38823
lfingers 7.12502
lthumb -5.16704 34.3052
rfemur -18.9706 6.8408 23.8623
rtibia 43.3638
rfoot -14.7811 -18.9752
rtoes -24.0442
lfemur -22.4876 -15.0033 -15.4643
ltibia 40.7483
lfoot -15.2135 2.91485
ltoes -19.8445
456
root -25.5972 14.7754 -0.837648 994.426 -91.2383 79.1063
lowerback 15.2109 0.681206 1.09765
upperback 7.89663 0.598211 0.49375
thorax -0.166452 0.128795 -0.192047
lowerneck -7.97114 -1.08491 1.71142
upperneck 3.79002 -1.51649 -2.00059
head 2.56381 -0.797516 -1.01135
rclavicle -8.69683e-017 -8.69683e-016
rhumerus -48.5453 15.7791 -88.1707
rradius 89.0584
rwrist -33.6601
rhand -35.8617 15.8998
rfingers 7.12502
rthumb -8.97631 -13.8892
lclavicle -8.69683e-017 -8.69683e-016
lhumerus -53.1487 2.33905 82.8761
lradius 63.1886
lwrist 18.6499
lhand -30.5186 6.64213
lfingers 7.12502
lthumb -3.8183 36.5877
rfemur -18.7461 7.44539 24.3159
rtibia 43.2457
rfoot -15.4938 -18.7156
rtoes -23.9784
lfemur -21.7698 -16.8914 -14.8729
ltibia 39.3503
lfoot -14.3082 3.80582
ltoes -19.583
457
root -25.7719 14.7648 -0.79452 1029.31 -92.1273 44.6856
lowerback 14.968 0.636172 1.06422
upperback 7.76327 0.539663 0.467201
thorax -0.180568 0.101789 -0.191167
lowerneck -8.11928 -1.47847 1.43705
upperneck 3.88448 -2.04216 -1.50323
head 2.61763 -1.04629 -0.829763
rclavicle -9.06955e-016 6.57232e-015
rhumerus -48.2532 16.1593 -88.7021
rradius 88.8092
rwrist -33.3008
rhand -35.9454 15.5671
rfingers 7.12502
rthumb -9.05713 -14.2184
lclavicle -9.06955e-016 6.57232e-015
lhumerus -53.8085 2.66064 82.0969
lradius 59.4321
lwrist 17.9088
lhand -28.8354 8.28414
lfingers 7.12502
lthumb -2.19275 38.2526
rfemur -18.4761 8.06314 24.7511
rtibia 43.0885
rfoot -16.333 -18.5288
rtoes -23.9359
lfemur -21.1744 -18.2582 -14.4425
ltibia 38.566
lfoot -13.5762 4.96951
ltoes -19.3619
458
root -25.9341 14.7512 -0.754654 1043.43 -93.2255 30.9934
lowerback 14.786 0.590132 0.845089
upperback 7.64186 0.455042 0.415889
thorax -0.216227 0.0564327 -0.108174
lowerneck -8.192 -1.9848 0.998988
upperneck 3.91134 -2.71335 -0.78889
head 2.64287 -1.36198 -0.556199
rclavicle 3.97569e-015 2.48481e-015
rhumerus -47.9958 16.432 -89.2322
rradius 88.4967
rwrist -32.7523
rhand -36.0427 15.3717
rfingers 7.12502
rthumb -9.15103 -14.4097
lclavicle 3.97569e-015 2.48481e-015
lhumerus -54.3387 2.86779 81.4331
lradius 55.5735
lwrist 16.5574
lhand -27.1162 9.19883
lfingers 7.12502
lthumb -0.53229 39.1779
rfemur -18.1782 8.80042 25.0481
rtibia 42.8813
rfoot -17.167 -18.4598
rtoes -24.0629
lfemur -20.7383 -18.8647 -14.2934
ltibia 38.363
lfoot -13.1547 6.21568
ltoes -19.2948
459
root -26.0825 14.741 -0.718071 1050.9 -94.3606 23.9141
lowerback 14.6743 0.547153 0.523624
upperback 7.55683 0.358301 0.345297
thorax -0.250746 0.00131531 0.0137559
lowerneck -8.16506 -2.63116 0.395662
upperneck 3.81107 -3.56749 0.165658
head 2.62409 -1.76351 -0.184777
rclavicle 1.73937e-015 -1.39149e-015
rhumerus -47.7655 16.5732 -89.7501
rradius 88.1327
rwrist -32.1404
rhand -36.1484 15.2602
rfingers 7.12502
rthumb -9.25297 -14.5167
lclavicle 1.73937e-015 -1.39149e-015
lhumerus -54.6224 2.96804 80.8863
lradius 51.5524
lwrist 14.6342
lhand -25.5045 9.47744
lfingers 7.12502
lthumb 1.02431 39.4547
rfemur -17.8452 9.67328 25.2731
rtibia 42.6173
rfoot -17.919 -18.5004
rtoes -24.246
lfemur -20.4752 -18.7629 -14.3195
ltibia 38.6281
lfoot -13.1017 7.38087
ltoes -19.6454
460
root -26.2183 14.7384 -0.683918 1055.47 -95.5294 19.7114
lowerback 14.6153 0.50774 0.146007
upperback 7.51213 0.255378 0.268497
thorax -0.269719 -0.0597569 0.161561
lowerneck -8.00709 -3.39951 -0.28708
upperneck 3.55311 -4.58326 1.26606
head 2.55328 -2.24427 0.241018
rclavicle -2.66371e-014 1.05356e-014
rhumerus -47.5644 16.6947 -90.3067
rradius 87.7263
rwrist -31.8139
rhand -36.2197 15.1984
rfingers 7.12502
rthumb -9.32176 -14.5755
lclavicle -2.66371e-014 1.05356e-014
lhumerus -54.6297 3.06556 80.4123
lradius 47.4124
lwrist 12.2145
lhand -24.0101 9.43179
lfingers 7.12502
lthumb 2.46762 39.3973
rfemur -17.5246 10.639 25.4765
rtibia 42.3056
rfoot -18.4697 -18.6282
rtoes -24.6128
lfemur -20.3266 -18.2165 -14.4076
ltibia 39.1511
lfoot -13.3555 8.38491
ltoes -19.945
461
root -26.3439 14.7437 -0.65154 1058.64 -96.7238 16.8853
lowerback 14.5659 0.468479 -0.288532
upperback 7.50433 0.142313 0.18598
thorax -0.253686 -0.12866 0.336837
lowerneck -7.78212 -4.29113 -1.00632
upperneck 3.24108 -5.76298 2.43244
head 2.48334 -2.80849 0.687236
rclavicle -6.06293e-015 1.98785e-016
rhumerus -47.3737 16.9099 -90.8836
rradius 87.277
rwrist -31.8706
rhand -36.2503 15.0572
rfingers 7.12502
rthumb -9.35136 -14.7154
lclavicle -6.06293e-015 1.98785e-016
lhumerus -54.4017 3.29942 79.9205
lradius 43.2633
lwrist 9.3826
lhand -22.6015 9.27598
lfingers 7.12502
lthumb 3.82792 39.2213
rfemur -17.2203 11.5793 25.6499
rtibia 41.9497
rfoot -18.8776 -18.7176
rtoes -25.0104
lfemur -20.2095 -17.5487 -14.5085
ltibia 39.7224
lfoot -13.875 9.22776
ltoes -19.813
462
root -26.4617 14.7551 -0.621477 1060.96 -97.9227 14.9173
lowerback 14.4365 0.406057 -0.761273
upperback 7.53288 -0.00681564 0.0847552
thorax -0.154648 -0.217483 0.518827
lowerneck -7.45945 -5.25057 -1.67836
upperneck 2.89661 -7.03793 3.58537
head 2.41389 -3.42457 1.11987
rclavicle 2.0276e-014 3.97569e-015
rhumerus -47.1674 17.339 -91.5191
rradius 86.783
rwrist -32.3489
rhand -36.258 14.798
rfingers 7.12502
rthumb -9.35879 -14.9742
lclavicle 2.0276e-014 3.97569e-015
lhumerus -54.0115 3.78017 79.305
lradius 39.2944
lwrist 6.37839
lhand -21.2766 9.24095
lfingers 7.12502
lthumb 5.10724 39.1594
rfemur -16.9528 12.4157 25.7931
rtibia 41.5517
rfoot -19.2032 -18.7056
rtoes -25.3389
lfemur -20.0572 -17.0205 -14.5831
ltibia 40.1472
lfoot -14.4166 9.83768
ltoes -18.8516
463
root -26.573 14.7711 -0.593514 1062.8 -99.06 13.478
lowerback 14.2013 0.289718 -1.24494
upperback 7.56215 -0.223628 -0.0487607
thorax 0.0048848 -0.339896 0.681463
lowerneck -7.07393 -6.24173 -2.35014
upperneck 2.60114 -8.35912 4.72842
head 2.38012 -4.06804 1.55029
rclavicle 7.15625e-015 7.95139e-016
rhumerus -46.9831 18.0146 -92.2319
rradius 86.2529
rwrist -33.0765
rhand -36.2662 14.5138
rfingers 7.12502
rthumb -9.36662 -15.258
lclavicle 7.15625e-015 7.95139e-016
lhumerus -53.5769 4.5446 78.494
lradius 35.6889
lwrist 3.5008
lhand -19.9713 9.40436
lfingers 7.12502
lthumb 6.36752 39.2887
rfemur -16.7409 13.0583 25.8708
rtibia 41.1133
rfoot -19.5188 -18.5717
rtoes -25.636
lfemur -19.8049 -16.6498 -14.6584
ltibia 40.3187
lfoot -14.9833 10.5601
ltoes -17.9
464
root -26.6781 14.7914 -0.568394 1064.52 -100.092 12.1787
lowerback 13.8744 0.115293 -1.75694
upperback 7.57432 -0.512805 -0.223003
thorax 0.200284 -0.498093 0.824882
lowerneck -6.63271 -7.2245 -3.06111
upperneck 2.37466 -9.67359 5.8664
head 2.39058 -4.71244 1.98963
rclavicle 1.0138e-014 4.77083e-015
rhumerus -46.8373 18.847 -93.0081
rradius 85.705
rwrist -33.7643
rhand -36.2343 14.3212
rfingers 7.12502
rthumb -9.33592 -15.4521
lclavicle 1.0138e-014 4.77083e-015
lhumerus -53.1726 5.515 77.5266
lradius 32.5655
lwrist 1.00188
lhand -18.8164 9.80805
lfingers 7.12502
lthumb 7.48241 39.6557
rfemur -16.5606 13.528 25.8402
rtibia 40.6345
rfoot -19.8513 -18.3335
rtoes -25.9015
lfemur -19.4495 -16.4285 -14.7813
ltibia 40.1986
lfoot -15.5368 11.3485
ltoes -17.0026
465
root -26.7762 14.8169 -0.546747 1066.43 -100.982 10.7403
lowerback 13.469 -0.110974 -2.32968
upperback 7.54534 -0.866646 -0.433762
thorax 0.400999 -0.688181 0.96903
lowerneck -6.15685 -8.16452 -3.84731
upperneck 2.21829 -10.9358 6.99425
head 2.44918 -5.33495 2.4444
rclavicle 2.04748e-014 -2.38542e-015
rhumerus -46.7782 19.6752 -93.8177
rradius 85.1794
rwrist -34.1314
rhand -36.1404 14.2866
rfingers 7.12502
rthumb -9.24532 -15.4907
lclavicle 2.04748e-014 -2.38542e-015
lhumerus -52.8356 6.56218 76.4957
lradius 30.005
lwrist -1.00915
lhand -17.8758 10.278
lfingers 7.12502
lthumb 8.39017 40.0913
rfemur -16.4282 13.8752 25.6523
rtibia 40.1189
rfoot -20.1946 -18.0275
rtoes -26.0702
lfemur -19.0681 -16.2896 -14.9893
ltibia 39.826
lfoot -15.9965 12.1038
ltoes -16.2615
466
root -26.8679 14.8473 -0.528564 1068.62 -101.756 9.02207
lowerback 13.0439 -0.358757 -2.99487
upperback 7.47938 -1.25028 -0.659931
thorax 0.582299 -0.894545 1.14843
lowerneck -5.67472 -9.04208 -4.69863
upperneck 2.11948 -12.12 8.06866
head 2.55066 -5.92281 2.89899
rclavicle 4.19436e-014 0
rhumerus -46.8342 20.3958 -94.6101
rradius 84.7264
rwrist -34.1232
rhand -36.0199 14.4
rfingers 7.12502
rthumb -9.12898 -15.3824
lclavicle 4.19436e-014 0
lhumerus -52.5561 7.56178 75.5196
lradius 28.0397
lwrist -2.50719
lhand -17.1421 10.7295
lfingers 7.12502
lthumb 9.09824 40.5132
rfemur -16.3057 14.1682 25.3033
rtibia 39.5686
rfoot -20.5043 -17.6997
rtoes -26.1859
lfemur -18.6599 -16.1751 -15.3124
ltibia 39.2641
lfoot -16.3368 12.781
ltoes -15.6689
467
root -26.9541 14.8809 -0.513054 1070.74 -102.466 7.3656
lowerback 12.6211 -0.597119 -3.64941
upperback 7.37125 -1.61186 -0.874565
thorax 0.724404 -1.08793 1.32711
lowerneck -5.19076 -9.87373 -5.57264
upperneck 2.05164 -13.2489 9.04602
head 2.67909 -6.4875 3.32928
rclavicle -4.41302e-014 6.36111e-015
rhumerus -47.0319 20.8888 -95.328
rradius 84.3981
rwrist -33.8081
rhand -35.8861 14.533
rfingers 7.12502
rthumb -8.99986 -15.255
lclavicle -4.41302e-014 6.36111e-015
lhumerus -52.2995 8.36526 74.6907
lradius 26.6396
lwrist -3.6085
lhand -16.6594 10.9917
lfingers 7.12502
lthumb 9.564 40.7546
rfemur -16.1714 14.4348 24.8875
rtibia 38.9779
rfoot -20.767 -17.36
rtoes -26.2483
lfemur -18.2569 -16.0726 -15.6715
ltibia 38.6001
lfoot -16.5798 13.4056
ltoes -15.2051
468
root -27.0358 14.9154 -0.499645 1072.7 -103.158 5.85725
lowerback 12.2056 -0.808688 -4.27933
upperback 7.23966 -1.9292 -1.05923
thorax 0.842672 -1.25788 1.5144
lowerneck -4.77855 -10.6035 -6.29269
upperneck 2.15789 -14.2634 10.1148
head 2.59887 -6.97211 3.37429
rclavicle 1.03368e-014 3.18055e-015
rhumerus -47.3251 21.2225 -95.9828
rradius 84.171
rwrist -33.503
rhand -35.739 14.6103
rfingers 7.12502
rthumb -8.85796 -15.1838
lclavicle 1.03368e-014 3.18055e-015
lhumerus -52.0221 8.97675 74.0311
lradius 25.7678
lwrist -4.50074
lhand -16.4658 11.0257
lfingers 7.12502
lthumb 9.75074 40.78
rfemur -16.0202 14.7157 24.4527
rtibia 38.3623
rfoot -20.9668 -17.0468
rtoes -26.342
lfemur -17.8425 -16.0459 -16.0457
ltibia 37.8869
lfoot -16.8033 14.0626
ltoes -14.6476
